<svg width="994" height="817" viewBox="0 0 994 817" fill="none" xmlns="http://www.w3.org/2000/svg">
<rect width="994" height="817" rx="10" fill="white" fill-opacity="0.17"/>
<rect x="86" y="67" width="823" height="57" rx="28.5" fill="white"/>
<rect x="86.5" y="67.5" width="822" height="56" rx="28" stroke="black" stroke-opacity="0.2"/>
<path d="M147.158 91.218V93H149.886V94.232H147.158V104H145.706V94.232H143.814V93H145.706V91.042C145.706 90.206 145.933 89.5533 146.388 89.084C146.843 88.6147 147.437 88.38 148.17 88.38C148.991 88.38 149.666 88.644 150.194 89.172L149.578 90.25C149.182 89.8833 148.764 89.7 148.324 89.7C147.547 89.7 147.158 90.206 147.158 91.218ZM152.298 88.38H153.794V104H152.298V88.38ZM160.874 104.22C159.73 104.22 158.792 103.831 158.058 103.054C157.325 102.262 156.958 101.162 156.958 99.754V93H158.476V99.424C158.476 100.553 158.733 101.411 159.246 101.998C159.774 102.57 160.478 102.856 161.358 102.856C162.15 102.856 162.825 102.585 163.382 102.042C163.94 101.485 164.218 100.663 164.218 99.578V93H165.736V104H164.658L164.394 102.592H164.24C163.507 103.677 162.385 104.22 160.874 104.22ZM173.692 103.758C173.237 104.066 172.702 104.22 172.086 104.22C171.382 104.22 170.802 104.015 170.348 103.604C169.908 103.193 169.688 102.519 169.688 101.58V94.232H167.576V93.176H168.192C168.778 93.176 169.204 93.0587 169.468 92.824C169.732 92.5747 169.864 92.1713 169.864 91.614V90.228H171.162V93H173.736V94.232H171.162V101.448C171.162 102.401 171.55 102.878 172.328 102.878C172.636 102.878 172.936 102.783 173.23 102.592L173.692 103.758ZM180.825 103.758C180.37 104.066 179.835 104.22 179.219 104.22C178.515 104.22 177.935 104.015 177.481 103.604C177.041 103.193 176.821 102.519 176.821 101.58V94.232H174.709V93.176H175.325C175.911 93.176 176.337 93.0587 176.601 92.824C176.865 92.5747 176.997 92.1713 176.997 91.614V90.228H178.295V93H180.869V94.232H178.295V101.448C178.295 102.401 178.683 102.878 179.461 102.878C179.769 102.878 180.069 102.783 180.363 102.592L180.825 103.758ZM187.274 92.78C188.784 92.78 189.994 93.3007 190.904 94.342C191.813 95.3687 192.216 96.8353 192.114 98.742H183.578C183.636 100.003 183.988 101.015 184.634 101.778C185.279 102.526 186.21 102.9 187.428 102.9C188.132 102.9 188.762 102.739 189.32 102.416C189.892 102.079 190.31 101.587 190.574 100.942H192.048C191.754 101.998 191.182 102.812 190.332 103.384C189.481 103.941 188.506 104.22 187.406 104.22C185.778 104.22 184.494 103.699 183.556 102.658C182.617 101.617 182.148 100.201 182.148 98.412C182.148 96.784 182.624 95.442 183.578 94.386C184.546 93.3153 185.778 92.78 187.274 92.78ZM183.644 97.554H190.684C190.654 96.5567 190.339 95.7207 189.738 95.046C189.136 94.3713 188.315 94.034 187.274 94.034C186.291 94.034 185.477 94.3567 184.832 95.002C184.186 95.6473 183.79 96.498 183.644 97.554ZM199.437 92.78H200.097V94.298C199.789 94.254 199.532 94.232 199.327 94.232C198.491 94.232 197.772 94.54 197.171 95.156C196.569 95.772 196.269 96.674 196.269 97.862V104H194.795V93H195.873L196.137 94.54H196.291C197.039 93.3667 198.087 92.78 199.437 92.78ZM214.599 93H216.029L213.499 104H211.475L209.099 95.332H208.967L206.547 104H204.567L202.015 93H203.445L205.557 102.504H205.711L208.087 93.836H209.979L212.355 102.504H212.509L214.599 93ZM226.176 101.58C226.176 102.02 226.257 102.328 226.418 102.504C226.594 102.68 226.865 102.768 227.232 102.768V104H226.968C225.868 104 225.201 103.501 224.966 102.504C224.555 103.032 224.005 103.45 223.316 103.758C222.627 104.066 221.93 104.22 221.226 104.22C220.199 104.22 219.341 103.963 218.652 103.45C217.977 102.922 217.64 102.174 217.64 101.206C217.64 99.05 219.305 97.84 222.634 97.576L224.768 97.4V97.114C224.768 96.1753 224.548 95.42 224.108 94.848C223.668 94.276 223.03 93.99 222.194 93.99C221.402 93.99 220.786 94.2173 220.346 94.672C219.921 95.1267 219.649 95.684 219.532 96.344H218.102C218.219 95.332 218.637 94.4887 219.356 93.814C220.075 93.1247 221.021 92.78 222.194 92.78C223.411 92.78 224.379 93.1613 225.098 93.924C225.817 94.6867 226.176 95.728 226.176 97.048V101.58ZM221.336 102.966C222.26 102.966 223.059 102.687 223.734 102.13C224.423 101.558 224.768 100.729 224.768 99.644V98.566L222.722 98.742C221.593 98.83 220.705 99.0793 220.06 99.49C219.429 99.9007 219.114 100.443 219.114 101.118C219.114 101.734 219.327 102.196 219.752 102.504C220.177 102.812 220.705 102.966 221.336 102.966ZM237.261 93H238.845L234.753 104H232.575L228.505 93H230.089L233.587 102.636H233.741L237.261 93ZM245.045 92.78C246.556 92.78 247.766 93.3007 248.675 94.342C249.585 95.3687 249.988 96.8353 249.885 98.742H241.349C241.408 100.003 241.76 101.015 242.405 101.778C243.051 102.526 243.982 102.9 245.199 102.9C245.903 102.9 246.534 102.739 247.091 102.416C247.663 102.079 248.081 101.587 248.345 100.942H249.819C249.526 101.998 248.954 102.812 248.103 103.384C247.253 103.941 246.277 104.22 245.177 104.22C243.549 104.22 242.266 103.699 241.327 102.658C240.389 101.617 239.919 100.201 239.919 98.412C239.919 96.784 240.396 95.442 241.349 94.386C242.317 93.3153 243.549 92.78 245.045 92.78ZM241.415 97.554H248.455C248.426 96.5567 248.111 95.7207 247.509 95.046C246.908 94.3713 246.087 94.034 245.045 94.034C244.063 94.034 243.249 94.3567 242.603 95.002C241.958 95.6473 241.562 96.498 241.415 97.554ZM253.125 104.198C252.803 104.198 252.524 104.088 252.289 103.868C252.069 103.633 251.959 103.369 251.959 103.076C251.959 102.753 252.069 102.482 252.289 102.262C252.524 102.042 252.803 101.932 253.125 101.932C253.419 101.932 253.675 102.042 253.895 102.262C254.115 102.482 254.225 102.753 254.225 103.076C254.225 103.369 254.115 103.633 253.895 103.868C253.675 104.088 253.419 104.198 253.125 104.198ZM266.542 100.282C266.381 101.441 265.846 102.387 264.936 103.12C264.027 103.853 262.927 104.22 261.636 104.22C259.935 104.22 258.615 103.685 257.676 102.614C256.752 101.529 256.29 100.157 256.29 98.5C256.29 96.9013 256.796 95.552 257.808 94.452C258.82 93.3373 260.089 92.78 261.614 92.78C262.949 92.78 264.064 93.176 264.958 93.968C265.868 94.7453 266.381 95.7207 266.498 96.894H265.024C264.878 96.102 264.504 95.442 263.902 94.914C263.301 94.386 262.524 94.122 261.57 94.122C260.441 94.122 259.524 94.5473 258.82 95.398C258.116 96.234 257.764 97.2753 257.764 98.522C257.764 99.8127 258.094 100.869 258.754 101.69C259.414 102.511 260.382 102.922 261.658 102.922C262.524 102.922 263.257 102.68 263.858 102.196C264.46 101.697 264.856 101.059 265.046 100.282H266.542ZM278.016 102.592C277.004 103.677 275.699 104.22 274.1 104.22C272.501 104.22 271.189 103.677 270.162 102.592C269.15 101.492 268.644 100.121 268.644 98.478C268.644 96.85 269.143 95.4933 270.14 94.408C271.152 93.3227 272.457 92.78 274.056 92.78C275.64 92.78 276.945 93.33 277.972 94.43C279.013 95.5153 279.534 96.8793 279.534 98.522C279.534 100.15 279.028 101.507 278.016 102.592ZM274.078 102.878C275.237 102.878 276.183 102.453 276.916 101.602C277.664 100.751 278.038 99.7173 278.038 98.5C278.038 97.2827 277.664 96.2487 276.916 95.398C276.168 94.5473 275.215 94.122 274.056 94.122C272.912 94.122 271.973 94.5473 271.24 95.398C270.507 96.2487 270.14 97.2827 270.14 98.5C270.14 99.7173 270.499 100.751 271.218 101.602C271.951 102.453 272.905 102.878 274.078 102.878ZM293.307 92.802C294.436 92.802 295.331 93.1687 295.991 93.902C296.666 94.6353 297.003 95.7207 297.003 97.158V104H295.529V97.268C295.529 96.2413 295.294 95.464 294.825 94.936C294.356 94.408 293.747 94.144 292.999 94.144C292.266 94.144 291.628 94.43 291.085 95.002C290.542 95.574 290.271 96.3587 290.271 97.356V104H288.775V97.422C288.775 96.3807 288.533 95.574 288.049 95.002C287.565 94.43 286.964 94.144 286.245 94.144C285.541 94.144 284.91 94.4153 284.353 94.958C283.796 95.5007 283.517 96.2707 283.517 97.268V104H282.021V93H283.099L283.385 94.408H283.539C283.818 93.9533 284.221 93.572 284.749 93.264C285.292 92.9413 285.915 92.78 286.619 92.78C287.44 92.78 288.115 93.0073 288.643 93.462C289.186 93.902 289.56 94.3933 289.765 94.936H289.919C290.198 94.3347 290.623 93.8287 291.195 93.418C291.767 93.0073 292.471 92.802 293.307 92.802ZM308.887 87.5L300.813 105.1H299.141L307.237 87.5H308.887ZM316.051 99.138C316.667 99.622 316.975 100.326 316.975 101.25C316.975 102.174 316.616 102.9 315.897 103.428C315.179 103.956 314.262 104.22 313.147 104.22C311.915 104.22 310.918 103.875 310.155 103.186C309.407 102.482 309.048 101.602 309.077 100.546H310.507C310.507 101.367 310.779 101.983 311.321 102.394C311.879 102.805 312.502 103.01 313.191 103.01C313.851 103.01 314.401 102.856 314.841 102.548C315.281 102.225 315.501 101.785 315.501 101.228C315.501 100.656 315.259 100.201 314.775 99.864C314.291 99.512 313.609 99.1967 312.729 98.918C311.747 98.61 310.955 98.214 310.353 97.73C309.752 97.246 309.451 96.586 309.451 95.75C309.451 94.8553 309.789 94.1367 310.463 93.594C311.138 93.0513 312.003 92.78 313.059 92.78C314.174 92.78 315.054 93.0953 315.699 93.726C316.359 94.3567 316.689 95.0973 316.689 95.948H315.303C315.274 95.376 315.039 94.9067 314.599 94.54C314.174 94.1733 313.631 93.99 312.971 93.99C312.399 93.99 311.908 94.144 311.497 94.452C311.101 94.7453 310.903 95.1487 310.903 95.662C310.903 96.1753 311.109 96.5933 311.519 96.916C311.945 97.2387 312.561 97.532 313.367 97.796C314.541 98.192 315.435 98.6393 316.051 99.138ZM324.19 103.758C323.735 104.066 323.2 104.22 322.584 104.22C321.88 104.22 321.3 104.015 320.846 103.604C320.406 103.193 320.186 102.519 320.186 101.58V94.232H318.074V93.176H318.69C319.276 93.176 319.702 93.0587 319.966 92.824C320.23 92.5747 320.362 92.1713 320.362 91.614V90.228H321.66V93H324.234V94.232H321.66V101.448C321.66 102.401 322.048 102.878 322.826 102.878C323.134 102.878 323.434 102.783 323.728 102.592L324.19 103.758ZM334.885 102.592C333.873 103.677 332.568 104.22 330.969 104.22C329.37 104.22 328.058 103.677 327.031 102.592C326.019 101.492 325.513 100.121 325.513 98.478C325.513 96.85 326.012 95.4933 327.009 94.408C328.021 93.3227 329.326 92.78 330.925 92.78C332.509 92.78 333.814 93.33 334.841 94.43C335.882 95.5153 336.403 96.8793 336.403 98.522C336.403 100.15 335.897 101.507 334.885 102.592ZM330.947 102.878C332.106 102.878 333.052 102.453 333.785 101.602C334.533 100.751 334.907 99.7173 334.907 98.5C334.907 97.2827 334.533 96.2487 333.785 95.398C333.037 94.5473 332.084 94.122 330.925 94.122C329.781 94.122 328.842 94.5473 328.109 95.398C327.376 96.2487 327.009 97.2827 327.009 98.5C327.009 99.7173 327.368 100.751 328.087 101.602C328.82 102.453 329.774 102.878 330.947 102.878ZM343.532 92.78H344.192V94.298C343.884 94.254 343.628 94.232 343.422 94.232C342.586 94.232 341.868 94.54 341.266 95.156C340.665 95.772 340.364 96.674 340.364 97.862V104H338.89V93H339.968L340.232 94.54H340.386C341.134 93.3667 342.183 92.78 343.532 92.78ZM350.469 92.78C351.98 92.78 353.19 93.3007 354.099 94.342C355.008 95.3687 355.412 96.8353 355.309 98.742H346.773C346.832 100.003 347.184 101.015 347.829 101.778C348.474 102.526 349.406 102.9 350.623 102.9C351.327 102.9 351.958 102.739 352.515 102.416C353.087 102.079 353.505 101.587 353.769 100.942H355.243C354.95 101.998 354.378 102.812 353.527 103.384C352.676 103.941 351.701 104.22 350.601 104.22C348.973 104.22 347.69 103.699 346.751 102.658C345.812 101.617 345.343 100.201 345.343 98.412C345.343 96.784 345.82 95.442 346.773 94.386C347.741 93.3153 348.973 92.78 350.469 92.78ZM346.839 97.554H353.879C353.85 96.5567 353.534 95.7207 352.933 95.046C352.332 94.3713 351.51 94.034 350.469 94.034C349.486 94.034 348.672 94.3567 348.027 95.002C347.382 95.6473 346.986 96.498 346.839 97.554Z" fill="black"/>
<rect x="97.0039" y="195.392" width="169.92" height="161.326" rx="4.5" stroke="black" stroke-opacity="0.3"/>
<rect x="86.2383" y="207.298" width="170.92" height="162.326" rx="10" transform="rotate(-7.83427 86.2383 207.298)" fill="#FB9129" fill-opacity="0.1"/>
<rect x="86.8018" y="207.725" width="169.92" height="161.326" rx="9.5" transform="rotate(-7.83427 86.8018 207.725)" stroke="black" stroke-opacity="0.3"/>
<path d="M147.206 414.135H148.466V426.735H146.972L139.808 416.133H139.682V426.735H138.44V414.135H139.988L147.08 424.683H147.206V414.135ZM156.576 420.345H161.958V426.735H161.13L160.878 425.313H160.77C159.666 426.381 158.346 426.915 156.81 426.915C155.07 426.915 153.708 426.339 152.724 425.187C151.752 424.023 151.266 422.541 151.266 420.741C151.266 418.773 151.794 417.153 152.85 415.881C153.918 414.597 155.286 413.955 156.954 413.955C158.394 413.955 159.534 414.309 160.374 415.017C161.226 415.725 161.76 416.655 161.976 417.807H160.662C160.458 417.051 160.05 416.421 159.438 415.917C158.838 415.413 158.028 415.161 157.008 415.161C155.7 415.161 154.632 415.677 153.804 416.709C152.976 417.741 152.562 419.055 152.562 420.651C152.562 422.139 152.946 423.363 153.714 424.323C154.482 425.271 155.58 425.745 157.008 425.745C157.812 425.745 158.532 425.571 159.168 425.223C159.816 424.863 160.326 424.461 160.698 424.017V421.425H156.576V420.345ZM174.066 414.135H175.326V426.735H173.832L166.668 416.133H166.542V426.735H165.3V414.135H166.848L173.94 424.683H174.066V414.135ZM186.654 419.229C187.77 419.229 188.664 419.589 189.336 420.309C190.008 421.017 190.344 421.971 190.344 423.171C190.344 424.275 189.984 425.175 189.264 425.871C188.556 426.567 187.65 426.915 186.546 426.915C185.358 426.915 184.44 426.579 183.792 425.907C183.144 425.223 182.802 424.359 182.766 423.315H183.972C184.02 424.083 184.26 424.695 184.692 425.151C185.136 425.607 185.742 425.835 186.51 425.835C187.278 425.835 187.908 425.589 188.4 425.097C188.892 424.605 189.138 423.957 189.138 423.153C189.138 422.313 188.898 421.623 188.418 421.083C187.938 420.543 187.314 420.273 186.546 420.273C185.994 420.273 185.484 420.393 185.016 420.633C184.548 420.873 184.188 421.215 183.936 421.659L182.928 421.371L183.558 415.215H189.768V416.349H184.62L184.224 420.129C184.848 419.529 185.658 419.229 186.654 419.229ZM193.916 425.025C194.228 425.025 194.462 425.139 194.618 425.367C194.786 425.595 194.87 425.889 194.87 426.249C194.87 426.813 194.714 427.305 194.402 427.725C194.09 428.145 193.724 428.469 193.304 428.697L192.98 428.283C193.604 427.815 193.916 427.329 193.916 426.825C193.652 426.849 193.43 426.783 193.25 426.627C193.07 426.459 192.98 426.243 192.98 425.979C192.98 425.703 193.064 425.475 193.232 425.295C193.412 425.115 193.64 425.025 193.916 425.025ZM200.774 426.915C199.538 426.915 198.542 426.411 197.786 425.403C197.042 424.395 196.67 422.913 196.67 420.957C196.67 419.025 197.048 417.555 197.804 416.547C198.56 415.527 199.556 415.017 200.792 415.017C202.04 415.017 203.03 415.527 203.762 416.547C204.506 417.555 204.878 419.031 204.878 420.975C204.878 422.943 204.506 424.425 203.762 425.421C203.018 426.417 202.022 426.915 200.774 426.915ZM198.776 424.521C199.292 425.337 199.964 425.745 200.792 425.745C201.62 425.745 202.286 425.337 202.79 424.521C203.306 423.705 203.564 422.523 203.564 420.975C203.564 419.415 203.306 418.227 202.79 417.411C202.286 416.595 201.62 416.187 200.792 416.187C199.964 416.187 199.292 416.595 198.776 417.411C198.272 418.227 198.02 419.415 198.02 420.975C198.02 422.523 198.272 423.705 198.776 424.521ZM211.339 426.915C210.103 426.915 209.107 426.411 208.351 425.403C207.607 424.395 207.235 422.913 207.235 420.957C207.235 419.025 207.613 417.555 208.369 416.547C209.125 415.527 210.121 415.017 211.357 415.017C212.605 415.017 213.595 415.527 214.327 416.547C215.071 417.555 215.443 419.031 215.443 420.975C215.443 422.943 215.071 424.425 214.327 425.421C213.583 426.417 212.587 426.915 211.339 426.915ZM209.341 424.521C209.857 425.337 210.529 425.745 211.357 425.745C212.185 425.745 212.851 425.337 213.355 424.521C213.871 423.705 214.129 422.523 214.129 420.975C214.129 419.415 213.871 418.227 213.355 417.411C212.851 416.595 212.185 416.187 211.357 416.187C210.529 416.187 209.857 416.595 209.341 417.411C208.837 418.227 208.585 419.415 208.585 420.975C208.585 422.523 208.837 423.705 209.341 424.521ZM221.903 426.915C220.667 426.915 219.671 426.411 218.915 425.403C218.171 424.395 217.799 422.913 217.799 420.957C217.799 419.025 218.177 417.555 218.933 416.547C219.689 415.527 220.685 415.017 221.921 415.017C223.169 415.017 224.159 415.527 224.891 416.547C225.635 417.555 226.007 419.031 226.007 420.975C226.007 422.943 225.635 424.425 224.891 425.421C224.147 426.417 223.151 426.915 221.903 426.915ZM219.905 424.521C220.421 425.337 221.093 425.745 221.921 425.745C222.749 425.745 223.415 425.337 223.919 424.521C224.435 423.705 224.693 422.523 224.693 420.975C224.693 419.415 224.435 418.227 223.919 417.411C223.415 416.595 222.749 416.187 221.921 416.187C221.093 416.187 220.421 416.595 219.905 417.411C219.401 418.227 219.149 419.415 219.149 420.975C219.149 422.523 219.401 423.705 219.905 424.521Z" fill="#787878"/>
<rect x="129.924" y="380.134" width="104.08" height="15.2778" rx="5" fill="#C4C4C4" fill-opacity="0.3"/>
<rect x="96.7656" y="513.392" width="169.92" height="161.326" rx="4.5" stroke="black" stroke-opacity="0.3"/>
<rect x="86" y="525.298" width="170.92" height="162.326" rx="10" transform="rotate(-7.83427 86 525.298)" fill="#178E44" fill-opacity="0.1"/>
<rect x="86.5635" y="525.725" width="169.92" height="161.326" rx="9.5" transform="rotate(-7.83427 86.5635 525.725)" stroke="black" stroke-opacity="0.3"/>
<path d="M146.968 732.135H148.228V744.735H146.734L139.57 734.133H139.444V744.735H138.202V732.135H139.75L146.842 742.683H146.968V732.135ZM156.337 738.345H161.719V744.735H160.891L160.639 743.313H160.531C159.427 744.381 158.107 744.915 156.571 744.915C154.831 744.915 153.469 744.339 152.485 743.187C151.513 742.023 151.027 740.541 151.027 738.741C151.027 736.773 151.555 735.153 152.611 733.881C153.679 732.597 155.047 731.955 156.715 731.955C158.155 731.955 159.295 732.309 160.135 733.017C160.987 733.725 161.521 734.655 161.737 735.807H160.423C160.219 735.051 159.811 734.421 159.199 733.917C158.599 733.413 157.789 733.161 156.769 733.161C155.461 733.161 154.393 733.677 153.565 734.709C152.737 735.741 152.323 737.055 152.323 738.651C152.323 740.139 152.707 741.363 153.475 742.323C154.243 743.271 155.341 743.745 156.769 743.745C157.573 743.745 158.293 743.571 158.929 743.223C159.577 742.863 160.087 742.461 160.459 742.017V739.425H156.337V738.345ZM173.828 732.135H175.088V744.735H173.594L166.43 734.133H166.304V744.735H165.062V732.135H166.61L173.702 742.683H173.828V732.135ZM186.415 737.229C187.531 737.229 188.425 737.589 189.097 738.309C189.769 739.017 190.105 739.971 190.105 741.171C190.105 742.275 189.745 743.175 189.025 743.871C188.317 744.567 187.411 744.915 186.307 744.915C185.119 744.915 184.201 744.579 183.553 743.907C182.905 743.223 182.563 742.359 182.527 741.315H183.733C183.781 742.083 184.021 742.695 184.453 743.151C184.897 743.607 185.503 743.835 186.271 743.835C187.039 743.835 187.669 743.589 188.161 743.097C188.653 742.605 188.899 741.957 188.899 741.153C188.899 740.313 188.659 739.623 188.179 739.083C187.699 738.543 187.075 738.273 186.307 738.273C185.755 738.273 185.245 738.393 184.777 738.633C184.309 738.873 183.949 739.215 183.697 739.659L182.689 739.371L183.319 733.215H189.529V734.349H184.381L183.985 738.129C184.609 737.529 185.419 737.229 186.415 737.229ZM193.678 743.025C193.99 743.025 194.224 743.139 194.38 743.367C194.548 743.595 194.632 743.889 194.632 744.249C194.632 744.813 194.476 745.305 194.164 745.725C193.852 746.145 193.486 746.469 193.066 746.697L192.742 746.283C193.366 745.815 193.678 745.329 193.678 744.825C193.414 744.849 193.192 744.783 193.012 744.627C192.832 744.459 192.742 744.243 192.742 743.979C192.742 743.703 192.826 743.475 192.994 743.295C193.174 743.115 193.402 743.025 193.678 743.025ZM200.536 744.915C199.3 744.915 198.304 744.411 197.548 743.403C196.804 742.395 196.432 740.913 196.432 738.957C196.432 737.025 196.81 735.555 197.566 734.547C198.322 733.527 199.318 733.017 200.554 733.017C201.802 733.017 202.792 733.527 203.524 734.547C204.268 735.555 204.64 737.031 204.64 738.975C204.64 740.943 204.268 742.425 203.524 743.421C202.78 744.417 201.784 744.915 200.536 744.915ZM198.538 742.521C199.054 743.337 199.726 743.745 200.554 743.745C201.382 743.745 202.048 743.337 202.552 742.521C203.068 741.705 203.326 740.523 203.326 738.975C203.326 737.415 203.068 736.227 202.552 735.411C202.048 734.595 201.382 734.187 200.554 734.187C199.726 734.187 199.054 734.595 198.538 735.411C198.034 736.227 197.782 737.415 197.782 738.975C197.782 740.523 198.034 741.705 198.538 742.521ZM211.1 744.915C209.864 744.915 208.868 744.411 208.112 743.403C207.368 742.395 206.996 740.913 206.996 738.957C206.996 737.025 207.374 735.555 208.13 734.547C208.886 733.527 209.882 733.017 211.118 733.017C212.366 733.017 213.356 733.527 214.088 734.547C214.832 735.555 215.204 737.031 215.204 738.975C215.204 740.943 214.832 742.425 214.088 743.421C213.344 744.417 212.348 744.915 211.1 744.915ZM209.102 742.521C209.618 743.337 210.29 743.745 211.118 743.745C211.946 743.745 212.612 743.337 213.116 742.521C213.632 741.705 213.89 740.523 213.89 738.975C213.89 737.415 213.632 736.227 213.116 735.411C212.612 734.595 211.946 734.187 211.118 734.187C210.29 734.187 209.618 734.595 209.102 735.411C208.598 736.227 208.346 737.415 208.346 738.975C208.346 740.523 208.598 741.705 209.102 742.521ZM221.665 744.915C220.429 744.915 219.433 744.411 218.677 743.403C217.933 742.395 217.561 740.913 217.561 738.957C217.561 737.025 217.939 735.555 218.695 734.547C219.451 733.527 220.447 733.017 221.683 733.017C222.931 733.017 223.921 733.527 224.653 734.547C225.397 735.555 225.769 737.031 225.769 738.975C225.769 740.943 225.397 742.425 224.653 743.421C223.909 744.417 222.913 744.915 221.665 744.915ZM219.667 742.521C220.183 743.337 220.855 743.745 221.683 743.745C222.511 743.745 223.177 743.337 223.681 742.521C224.197 741.705 224.455 740.523 224.455 738.975C224.455 737.415 224.197 736.227 223.681 735.411C223.177 734.595 222.511 734.187 221.683 734.187C220.855 734.187 220.183 734.595 219.667 735.411C219.163 736.227 218.911 737.415 218.911 738.975C218.911 740.523 219.163 741.705 219.667 742.521Z" fill="#787878"/>
<rect x="129.686" y="698.134" width="104.08" height="15.2778" rx="5" fill="#C4C4C4" fill-opacity="0.3"/>
<rect x="445.16" y="379.747" width="104.08" height="15.2778" rx="5" fill="#C4C4C4" fill-opacity="0.3"/>
<rect x="412.002" y="195.392" width="169.92" height="161.326" rx="4.5" stroke="black" stroke-opacity="0.3"/>
<rect x="401.236" y="207.298" width="170.92" height="162.326" rx="30" transform="rotate(-7.83427 401.236 207.298)" fill="#F1A5C2" fill-opacity="0.1"/>
<rect x="401.8" y="207.725" width="169.92" height="161.326" rx="29.5" transform="rotate(-7.83427 401.8 207.725)" stroke="black" stroke-opacity="0.3"/>
<path d="M464.668 413.747H465.928V426.347H464.434L457.27 415.745H457.144V426.347H455.902V413.747H457.45L464.542 424.295H464.668V413.747ZM474.037 419.957H479.419V426.347H478.591L478.339 424.925H478.231C477.127 425.993 475.807 426.527 474.271 426.527C472.531 426.527 471.169 425.951 470.185 424.799C469.213 423.635 468.727 422.153 468.727 420.353C468.727 418.385 469.255 416.765 470.311 415.493C471.379 414.209 472.747 413.567 474.415 413.567C475.855 413.567 476.995 413.921 477.835 414.629C478.687 415.337 479.221 416.267 479.437 417.419H478.123C477.919 416.663 477.511 416.033 476.899 415.529C476.299 415.025 475.489 414.773 474.469 414.773C473.161 414.773 472.093 415.289 471.265 416.321C470.437 417.353 470.023 418.667 470.023 420.263C470.023 421.751 470.407 422.975 471.175 423.935C471.943 424.883 473.041 425.357 474.469 425.357C475.273 425.357 475.993 425.183 476.629 424.835C477.277 424.475 477.787 424.073 478.159 423.629V421.037H474.037V419.957ZM491.527 413.747H492.787V426.347H491.293L484.129 415.745H484.003V426.347H482.761V413.747H484.309L491.401 424.295H491.527V413.747ZM505.735 420.245C506.359 420.449 506.851 420.809 507.211 421.325C507.583 421.841 507.769 422.453 507.769 423.161C507.769 424.169 507.427 424.985 506.743 425.609C506.071 426.221 505.159 426.527 504.007 426.527C502.843 426.527 501.943 426.221 501.307 425.609C500.671 424.985 500.311 424.157 500.227 423.125H501.433C501.481 423.761 501.721 424.301 502.153 424.745C502.597 425.189 503.215 425.411 504.007 425.411C504.739 425.411 505.339 425.201 505.807 424.781C506.275 424.361 506.509 423.803 506.509 423.107C506.509 422.435 506.293 421.883 505.861 421.451C505.429 421.019 504.823 420.803 504.043 420.803H503.449V419.705H504.025C504.661 419.705 505.171 419.519 505.555 419.147C505.939 418.763 506.131 418.283 506.131 417.707C506.131 417.131 505.939 416.663 505.555 416.303C505.183 415.931 504.673 415.745 504.025 415.745C503.413 415.745 502.909 415.919 502.513 416.267C502.117 416.615 501.895 417.083 501.847 417.671H500.641C500.641 416.783 500.977 416.057 501.649 415.493C502.321 414.917 503.131 414.629 504.079 414.629C505.015 414.629 505.783 414.911 506.383 415.475C506.995 416.039 507.301 416.723 507.301 417.527C507.301 418.727 506.779 419.609 505.735 420.173V420.245ZM510.745 424.637C511.057 424.637 511.291 424.751 511.447 424.979C511.615 425.207 511.699 425.501 511.699 425.861C511.699 426.425 511.543 426.917 511.231 427.337C510.919 427.757 510.553 428.081 510.133 428.309L509.809 427.895C510.433 427.427 510.745 426.941 510.745 426.437C510.481 426.461 510.259 426.395 510.079 426.239C509.899 426.071 509.809 425.855 509.809 425.591C509.809 425.315 509.893 425.087 510.061 424.907C510.241 424.727 510.469 424.637 510.745 424.637ZM517.603 426.527C516.367 426.527 515.371 426.023 514.615 425.015C513.871 424.007 513.499 422.525 513.499 420.569C513.499 418.637 513.877 417.167 514.633 416.159C515.389 415.139 516.385 414.629 517.621 414.629C518.869 414.629 519.859 415.139 520.591 416.159C521.335 417.167 521.707 418.643 521.707 420.587C521.707 422.555 521.335 424.037 520.591 425.033C519.847 426.029 518.851 426.527 517.603 426.527ZM515.605 424.133C516.121 424.949 516.793 425.357 517.621 425.357C518.449 425.357 519.115 424.949 519.619 424.133C520.135 423.317 520.393 422.135 520.393 420.587C520.393 419.027 520.135 417.839 519.619 417.023C519.115 416.207 518.449 415.799 517.621 415.799C516.793 415.799 516.121 416.207 515.605 417.023C515.101 417.839 514.849 419.027 514.849 420.587C514.849 422.135 515.101 423.317 515.605 424.133ZM528.167 426.527C526.931 426.527 525.935 426.023 525.179 425.015C524.435 424.007 524.063 422.525 524.063 420.569C524.063 418.637 524.441 417.167 525.197 416.159C525.953 415.139 526.949 414.629 528.185 414.629C529.433 414.629 530.423 415.139 531.155 416.159C531.899 417.167 532.271 418.643 532.271 420.587C532.271 422.555 531.899 424.037 531.155 425.033C530.411 426.029 529.415 426.527 528.167 426.527ZM526.169 424.133C526.685 424.949 527.357 425.357 528.185 425.357C529.013 425.357 529.679 424.949 530.183 424.133C530.699 423.317 530.957 422.135 530.957 420.587C530.957 419.027 530.699 417.839 530.183 417.023C529.679 416.207 529.013 415.799 528.185 415.799C527.357 415.799 526.685 416.207 526.169 417.023C525.665 417.839 525.413 419.027 525.413 420.587C525.413 422.135 525.665 423.317 526.169 424.133ZM538.732 426.527C537.496 426.527 536.5 426.023 535.744 425.015C535 424.007 534.628 422.525 534.628 420.569C534.628 418.637 535.006 417.167 535.762 416.159C536.518 415.139 537.514 414.629 538.75 414.629C539.998 414.629 540.988 415.139 541.72 416.159C542.464 417.167 542.836 418.643 542.836 420.587C542.836 422.555 542.464 424.037 541.72 425.033C540.976 426.029 539.98 426.527 538.732 426.527ZM536.734 424.133C537.25 424.949 537.922 425.357 538.75 425.357C539.578 425.357 540.244 424.949 540.748 424.133C541.264 423.317 541.522 422.135 541.522 420.587C541.522 419.027 541.264 417.839 540.748 417.023C540.244 416.207 539.578 415.799 538.75 415.799C537.922 415.799 537.25 416.207 536.734 417.023C536.23 417.839 535.978 419.027 535.978 420.587C535.978 422.135 536.23 423.317 536.734 424.133Z" fill="#787878"/>
<rect x="728.004" y="195.392" width="169.92" height="161.326" rx="4.5" stroke="black" stroke-opacity="0.3"/>
<rect x="717.238" y="207.298" width="170.92" height="162.326" transform="rotate(-7.83427 717.238 207.298)" fill="#262C55" fill-opacity="0.1"/>
<rect x="717.802" y="207.725" width="169.92" height="161.326" transform="rotate(-7.83427 717.802 207.725)" stroke="black" stroke-opacity="0.3"/>
<path d="M778.895 413.747H780.155V426.347H778.661L771.497 415.745H771.371V426.347H770.129V413.747H771.677L778.769 424.295H778.895V413.747ZM788.265 419.957H793.647V426.347H792.819L792.567 424.925H792.459C791.355 425.993 790.035 426.527 788.499 426.527C786.759 426.527 785.397 425.951 784.413 424.799C783.441 423.635 782.955 422.153 782.955 420.353C782.955 418.385 783.483 416.765 784.539 415.493C785.607 414.209 786.975 413.567 788.643 413.567C790.083 413.567 791.223 413.921 792.063 414.629C792.915 415.337 793.449 416.267 793.665 417.419H792.351C792.147 416.663 791.739 416.033 791.127 415.529C790.527 415.025 789.717 414.773 788.697 414.773C787.389 414.773 786.321 415.289 785.493 416.321C784.665 417.353 784.251 418.667 784.251 420.263C784.251 421.751 784.635 422.975 785.403 423.935C786.171 424.883 787.269 425.357 788.697 425.357C789.501 425.357 790.221 425.183 790.857 424.835C791.505 424.475 792.015 424.073 792.387 423.629V421.037H788.265V419.957ZM805.755 413.747H807.015V426.347H805.521L798.357 415.745H798.231V426.347H796.989V413.747H798.537L805.629 424.295H805.755V413.747ZM818.649 419.129C819.513 419.129 820.293 419.459 820.989 420.119C821.685 420.779 822.033 421.661 822.033 422.765C822.033 423.845 821.679 424.745 820.971 425.465C820.275 426.173 819.369 426.527 818.253 426.527C817.113 426.527 816.195 426.173 815.499 425.465C814.803 424.757 814.455 423.821 814.455 422.657C814.455 422.033 814.569 421.451 814.797 420.911C815.037 420.359 815.403 419.687 815.895 418.895L818.361 414.827H819.855L816.741 419.651C816.921 419.531 817.053 419.447 817.137 419.399C817.221 419.339 817.395 419.279 817.659 419.219C817.935 419.159 818.265 419.129 818.649 419.129ZM818.253 425.447C819.033 425.447 819.657 425.189 820.125 424.673C820.593 424.145 820.827 423.503 820.827 422.747C820.827 422.015 820.593 421.397 820.125 420.893C819.669 420.389 819.051 420.137 818.271 420.137C817.491 420.137 816.867 420.389 816.399 420.893C815.931 421.397 815.697 422.015 815.697 422.747C815.697 423.503 815.931 424.145 816.399 424.673C816.867 425.189 817.485 425.447 818.253 425.447ZM824.937 424.637C825.249 424.637 825.483 424.751 825.639 424.979C825.807 425.207 825.891 425.501 825.891 425.861C825.891 426.425 825.735 426.917 825.423 427.337C825.111 427.757 824.745 428.081 824.325 428.309L824.001 427.895C824.625 427.427 824.937 426.941 824.937 426.437C824.673 426.461 824.451 426.395 824.271 426.239C824.091 426.071 824.001 425.855 824.001 425.591C824.001 425.315 824.085 425.087 824.253 424.907C824.433 424.727 824.661 424.637 824.937 424.637ZM831.795 426.527C830.559 426.527 829.563 426.023 828.807 425.015C828.063 424.007 827.691 422.525 827.691 420.569C827.691 418.637 828.069 417.167 828.825 416.159C829.581 415.139 830.577 414.629 831.813 414.629C833.061 414.629 834.051 415.139 834.783 416.159C835.527 417.167 835.899 418.643 835.899 420.587C835.899 422.555 835.527 424.037 834.783 425.033C834.039 426.029 833.043 426.527 831.795 426.527ZM829.797 424.133C830.313 424.949 830.985 425.357 831.813 425.357C832.641 425.357 833.307 424.949 833.811 424.133C834.327 423.317 834.585 422.135 834.585 420.587C834.585 419.027 834.327 417.839 833.811 417.023C833.307 416.207 832.641 415.799 831.813 415.799C830.985 415.799 830.313 416.207 829.797 417.023C829.293 417.839 829.041 419.027 829.041 420.587C829.041 422.135 829.293 423.317 829.797 424.133ZM842.36 426.527C841.124 426.527 840.128 426.023 839.372 425.015C838.628 424.007 838.256 422.525 838.256 420.569C838.256 418.637 838.634 417.167 839.39 416.159C840.146 415.139 841.142 414.629 842.378 414.629C843.626 414.629 844.616 415.139 845.348 416.159C846.092 417.167 846.464 418.643 846.464 420.587C846.464 422.555 846.092 424.037 845.348 425.033C844.604 426.029 843.608 426.527 842.36 426.527ZM840.362 424.133C840.878 424.949 841.55 425.357 842.378 425.357C843.206 425.357 843.872 424.949 844.376 424.133C844.892 423.317 845.15 422.135 845.15 420.587C845.15 419.027 844.892 417.839 844.376 417.023C843.872 416.207 843.206 415.799 842.378 415.799C841.55 415.799 840.878 416.207 840.362 417.023C839.858 417.839 839.606 419.027 839.606 420.587C839.606 422.135 839.858 423.317 840.362 424.133ZM852.924 426.527C851.688 426.527 850.692 426.023 849.936 425.015C849.192 424.007 848.82 422.525 848.82 420.569C848.82 418.637 849.198 417.167 849.954 416.159C850.71 415.139 851.706 414.629 852.942 414.629C854.19 414.629 855.18 415.139 855.912 416.159C856.656 417.167 857.028 418.643 857.028 420.587C857.028 422.555 856.656 424.037 855.912 425.033C855.168 426.029 854.172 426.527 852.924 426.527ZM850.926 424.133C851.442 424.949 852.114 425.357 852.942 425.357C853.77 425.357 854.436 424.949 854.94 424.133C855.456 423.317 855.714 422.135 855.714 420.587C855.714 419.027 855.456 417.839 854.94 417.023C854.436 416.207 853.77 415.799 852.942 415.799C852.114 415.799 851.442 416.207 850.926 417.023C850.422 417.839 850.17 419.027 850.17 420.587C850.17 422.135 850.422 423.317 850.926 424.133Z" fill="#787878"/>
<rect x="761.162" y="379.747" width="104.08" height="15.2778" rx="5" fill="#C4C4C4" fill-opacity="0.3"/>
<rect x="444.924" y="697.747" width="104.08" height="15.2778" rx="5" fill="#C4C4C4" fill-opacity="0.3"/>
<rect x="411.766" y="513.392" width="169.92" height="161.326" rx="4.5" stroke="black" stroke-opacity="0.3"/>
<rect x="401" y="525.298" width="170.92" height="162.326" rx="30" transform="rotate(-7.83427 401 525.298)" fill="#00ABAB" fill-opacity="0.1"/>
<rect x="401.563" y="525.726" width="169.92" height="161.326" rx="29.5" transform="rotate(-7.83427 401.563 525.726)" stroke="black" stroke-opacity="0.3"/>
<path d="M462.669 731.748H463.929V744.348H462.435L455.271 733.746H455.145V744.348H453.903V731.748H455.451L462.543 742.296H462.669V731.748ZM472.039 737.958H477.421V744.348H476.593L476.341 742.926H476.233C475.129 743.994 473.809 744.528 472.273 744.528C470.533 744.528 469.171 743.952 468.187 742.8C467.215 741.636 466.729 740.154 466.729 738.354C466.729 736.386 467.257 734.766 468.313 733.494C469.381 732.21 470.749 731.568 472.417 731.568C473.857 731.568 474.997 731.922 475.837 732.63C476.689 733.338 477.223 734.268 477.439 735.42H476.125C475.921 734.664 475.513 734.034 474.901 733.53C474.301 733.026 473.491 732.774 472.471 732.774C471.163 732.774 470.095 733.29 469.267 734.322C468.439 735.354 468.025 736.668 468.025 738.264C468.025 739.752 468.409 740.976 469.177 741.936C469.945 742.884 471.043 743.358 472.471 743.358C473.275 743.358 473.995 743.184 474.631 742.836C475.279 742.476 475.789 742.074 476.161 741.63V739.038H472.039V737.958ZM489.529 731.748H490.789V744.348H489.295L482.131 733.746H482.005V744.348H480.763V731.748H482.311L489.403 742.296H489.529V731.748ZM503.737 738.246C504.361 738.45 504.853 738.81 505.213 739.326C505.585 739.842 505.771 740.454 505.771 741.162C505.771 742.17 505.429 742.986 504.745 743.61C504.073 744.222 503.161 744.528 502.009 744.528C500.845 744.528 499.945 744.222 499.309 743.61C498.673 742.986 498.313 742.158 498.229 741.126H499.435C499.483 741.762 499.723 742.302 500.155 742.746C500.599 743.19 501.217 743.412 502.009 743.412C502.741 743.412 503.341 743.202 503.809 742.782C504.277 742.362 504.511 741.804 504.511 741.108C504.511 740.436 504.295 739.884 503.863 739.452C503.431 739.02 502.825 738.804 502.045 738.804H501.451V737.706H502.027C502.663 737.706 503.173 737.52 503.557 737.148C503.941 736.764 504.133 736.284 504.133 735.708C504.133 735.132 503.941 734.664 503.557 734.304C503.185 733.932 502.675 733.746 502.027 733.746C501.415 733.746 500.911 733.92 500.515 734.268C500.119 734.616 499.897 735.084 499.849 735.672H498.643C498.643 734.784 498.979 734.058 499.651 733.494C500.323 732.918 501.133 732.63 502.081 732.63C503.017 732.63 503.785 732.912 504.385 733.476C504.997 734.04 505.303 734.724 505.303 735.528C505.303 736.728 504.781 737.61 503.737 738.174V738.246ZM508.746 742.638C509.058 742.638 509.292 742.752 509.448 742.98C509.616 743.208 509.7 743.502 509.7 743.862C509.7 744.426 509.544 744.918 509.232 745.338C508.92 745.758 508.554 746.082 508.134 746.31L507.81 745.896C508.434 745.428 508.746 744.942 508.746 744.438C508.482 744.462 508.26 744.396 508.08 744.24C507.9 744.072 507.81 743.856 507.81 743.592C507.81 743.316 507.894 743.088 508.062 742.908C508.242 742.728 508.47 742.638 508.746 742.638ZM515.604 744.528C514.368 744.528 513.372 744.024 512.616 743.016C511.872 742.008 511.5 740.526 511.5 738.57C511.5 736.638 511.878 735.168 512.634 734.16C513.39 733.14 514.386 732.63 515.622 732.63C516.87 732.63 517.86 733.14 518.592 734.16C519.336 735.168 519.708 736.644 519.708 738.588C519.708 740.556 519.336 742.038 518.592 743.034C517.848 744.03 516.852 744.528 515.604 744.528ZM513.606 742.134C514.122 742.95 514.794 743.358 515.622 743.358C516.45 743.358 517.116 742.95 517.62 742.134C518.136 741.318 518.394 740.136 518.394 738.588C518.394 737.028 518.136 735.84 517.62 735.024C517.116 734.208 516.45 733.8 515.622 733.8C514.794 733.8 514.122 734.208 513.606 735.024C513.102 735.84 512.85 737.028 512.85 738.588C512.85 740.136 513.102 741.318 513.606 742.134ZM526.169 744.528C524.933 744.528 523.937 744.024 523.181 743.016C522.437 742.008 522.065 740.526 522.065 738.57C522.065 736.638 522.443 735.168 523.199 734.16C523.955 733.14 524.951 732.63 526.187 732.63C527.435 732.63 528.425 733.14 529.157 734.16C529.901 735.168 530.273 736.644 530.273 738.588C530.273 740.556 529.901 742.038 529.157 743.034C528.413 744.03 527.417 744.528 526.169 744.528ZM524.171 742.134C524.687 742.95 525.359 743.358 526.187 743.358C527.015 743.358 527.681 742.95 528.185 742.134C528.701 741.318 528.959 740.136 528.959 738.588C528.959 737.028 528.701 735.84 528.185 735.024C527.681 734.208 527.015 733.8 526.187 733.8C525.359 733.8 524.687 734.208 524.171 735.024C523.667 735.84 523.415 737.028 523.415 738.588C523.415 740.136 523.667 741.318 524.171 742.134ZM536.733 744.528C535.497 744.528 534.501 744.024 533.745 743.016C533.001 742.008 532.629 740.526 532.629 738.57C532.629 736.638 533.007 735.168 533.763 734.16C534.519 733.14 535.515 732.63 536.751 732.63C537.999 732.63 538.989 733.14 539.721 734.16C540.465 735.168 540.837 736.644 540.837 738.588C540.837 740.556 540.465 742.038 539.721 743.034C538.977 744.03 537.981 744.528 536.733 744.528ZM534.735 742.134C535.251 742.95 535.923 743.358 536.751 743.358C537.579 743.358 538.245 742.95 538.749 742.134C539.265 741.318 539.523 740.136 539.523 738.588C539.523 737.028 539.265 735.84 538.749 735.024C538.245 734.208 537.579 733.8 536.751 733.8C535.923 733.8 535.251 734.208 534.735 735.024C534.231 735.84 533.979 737.028 533.979 738.588C533.979 740.136 534.231 741.318 534.735 742.134Z" fill="#787878"/>
<rect x="727.766" y="513.392" width="169.92" height="161.326" rx="4.5" stroke="black" stroke-opacity="0.3"/>
<rect x="717" y="525.298" width="170.92" height="162.326" transform="rotate(-7.83427 717 525.298)" fill="#FB4E20" fill-opacity="0.1"/>
<rect x="717.563" y="525.726" width="169.92" height="161.326" transform="rotate(-7.83427 717.563 525.726)" stroke="black" stroke-opacity="0.3"/>
<path d="M778.895 731.748H780.155V744.348H778.661L771.497 733.746H771.371V744.348H770.129V731.748H771.677L778.769 742.296H778.895V731.748ZM788.264 737.958H793.646V744.348H792.818L792.566 742.926H792.458C791.354 743.994 790.034 744.528 788.498 744.528C786.758 744.528 785.396 743.952 784.412 742.8C783.44 741.636 782.954 740.154 782.954 738.354C782.954 736.386 783.482 734.766 784.538 733.494C785.606 732.21 786.974 731.568 788.642 731.568C790.082 731.568 791.222 731.922 792.062 732.63C792.914 733.338 793.448 734.268 793.664 735.42H792.35C792.146 734.664 791.738 734.034 791.126 733.53C790.526 733.026 789.716 732.774 788.696 732.774C787.388 732.774 786.32 733.29 785.492 734.322C784.664 735.354 784.25 736.668 784.25 738.264C784.25 739.752 784.634 740.976 785.402 741.936C786.17 742.884 787.268 743.358 788.696 743.358C789.5 743.358 790.22 743.184 790.856 742.836C791.504 742.476 792.014 742.074 792.386 741.63V739.038H788.264V737.958ZM805.754 731.748H807.014V744.348H805.52L798.356 733.746H798.23V744.348H796.988V731.748H798.536L805.628 742.296H805.754V731.748ZM818.648 737.13C819.512 737.13 820.292 737.46 820.988 738.12C821.684 738.78 822.032 739.662 822.032 740.766C822.032 741.846 821.678 742.746 820.97 743.466C820.274 744.174 819.368 744.528 818.252 744.528C817.112 744.528 816.194 744.174 815.498 743.466C814.802 742.758 814.454 741.822 814.454 740.658C814.454 740.034 814.568 739.452 814.796 738.912C815.036 738.36 815.402 737.688 815.894 736.896L818.36 732.828H819.854L816.74 737.652C816.92 737.532 817.052 737.448 817.136 737.4C817.22 737.34 817.394 737.28 817.658 737.22C817.934 737.16 818.264 737.13 818.648 737.13ZM818.252 743.448C819.032 743.448 819.656 743.19 820.124 742.674C820.592 742.146 820.826 741.504 820.826 740.748C820.826 740.016 820.592 739.398 820.124 738.894C819.668 738.39 819.05 738.138 818.27 738.138C817.49 738.138 816.866 738.39 816.398 738.894C815.93 739.398 815.696 740.016 815.696 740.748C815.696 741.504 815.93 742.146 816.398 742.674C816.866 743.19 817.484 743.448 818.252 743.448ZM824.937 742.638C825.249 742.638 825.483 742.752 825.639 742.98C825.807 743.208 825.891 743.502 825.891 743.862C825.891 744.426 825.735 744.918 825.423 745.338C825.111 745.758 824.745 746.082 824.325 746.31L824.001 745.896C824.625 745.428 824.937 744.942 824.937 744.438C824.673 744.462 824.451 744.396 824.271 744.24C824.091 744.072 824.001 743.856 824.001 743.592C824.001 743.316 824.085 743.088 824.253 742.908C824.433 742.728 824.661 742.638 824.937 742.638ZM831.795 744.528C830.559 744.528 829.563 744.024 828.807 743.016C828.063 742.008 827.691 740.526 827.691 738.57C827.691 736.638 828.069 735.168 828.825 734.16C829.581 733.14 830.577 732.63 831.813 732.63C833.061 732.63 834.051 733.14 834.783 734.16C835.527 735.168 835.899 736.644 835.899 738.588C835.899 740.556 835.527 742.038 834.783 743.034C834.039 744.03 833.043 744.528 831.795 744.528ZM829.797 742.134C830.313 742.95 830.985 743.358 831.813 743.358C832.641 743.358 833.307 742.95 833.811 742.134C834.327 741.318 834.585 740.136 834.585 738.588C834.585 737.028 834.327 735.84 833.811 735.024C833.307 734.208 832.641 733.8 831.813 733.8C830.985 733.8 830.313 734.208 829.797 735.024C829.293 735.84 829.041 737.028 829.041 738.588C829.041 740.136 829.293 741.318 829.797 742.134ZM842.359 744.528C841.123 744.528 840.127 744.024 839.371 743.016C838.627 742.008 838.255 740.526 838.255 738.57C838.255 736.638 838.633 735.168 839.389 734.16C840.145 733.14 841.141 732.63 842.377 732.63C843.625 732.63 844.615 733.14 845.347 734.16C846.091 735.168 846.463 736.644 846.463 738.588C846.463 740.556 846.091 742.038 845.347 743.034C844.603 744.03 843.607 744.528 842.359 744.528ZM840.361 742.134C840.877 742.95 841.549 743.358 842.377 743.358C843.205 743.358 843.871 742.95 844.375 742.134C844.891 741.318 845.149 740.136 845.149 738.588C845.149 737.028 844.891 735.84 844.375 735.024C843.871 734.208 843.205 733.8 842.377 733.8C841.549 733.8 840.877 734.208 840.361 735.024C839.857 735.84 839.605 737.028 839.605 738.588C839.605 740.136 839.857 741.318 840.361 742.134ZM852.923 744.528C851.687 744.528 850.691 744.024 849.935 743.016C849.191 742.008 848.819 740.526 848.819 738.57C848.819 736.638 849.197 735.168 849.953 734.16C850.709 733.14 851.705 732.63 852.941 732.63C854.189 732.63 855.179 733.14 855.911 734.16C856.655 735.168 857.027 736.644 857.027 738.588C857.027 740.556 856.655 742.038 855.911 743.034C855.167 744.03 854.171 744.528 852.923 744.528ZM850.925 742.134C851.441 742.95 852.113 743.358 852.941 743.358C853.769 743.358 854.435 742.95 854.939 742.134C855.455 741.318 855.713 740.136 855.713 738.588C855.713 737.028 855.455 735.84 854.939 735.024C854.435 734.208 853.769 733.8 852.941 733.8C852.113 733.8 851.441 734.208 850.925 735.024C850.421 735.84 850.169 737.028 850.169 738.588C850.169 740.136 850.421 741.318 850.925 742.134Z" fill="#787878"/>
<rect x="760.924" y="697.747" width="104.08" height="15.2778" rx="5" fill="#C4C4C4" fill-opacity="0.3"/>
</svg>
